<svg width="38" height="61" viewBox="0 0 38 61" fill="#ffffff" xmlns="http://www.w3.org/2000/svg">
<path fill-rule="evenodd" clip-rule="evenodd" d="M7.74053 45.9054C11.8768 45.9054 15.2405 49.2692 15.2405 53.4054C15.2405 57.5417 11.8768 60.9054 7.74053 60.9054C3.60428 60.9054 0.240532 57.5417 0.240532 53.4054C0.240532 49.2692 3.60428 45.9054 7.74053 45.9054ZM30.2405 45.9054C34.3768 45.9054 37.7405 49.2692 37.7405 53.4054C37.7405 57.5417 34.3768 60.9054 30.2405 60.9054C26.1043 60.9054 22.7405 57.5417 22.7405 53.4054C22.7405 49.2692 26.1043 45.9054 30.2405 45.9054ZM7.74053 23.4054C11.8768 23.4054 15.2405 26.7692 15.2405 30.9054C15.2405 35.0417 11.8768 38.4054 7.74053 38.4054C3.60428 38.4054 0.240532 35.0417 0.240532 30.9054C0.240532 26.7692 3.60428 23.4054 7.74053 23.4054ZM30.2405 23.4054C34.3768 23.4054 37.7405 26.7692 37.7405 30.9054C37.7405 35.0417 34.3768 38.4054 30.2405 38.4054C26.1043 38.4054 22.7405 35.0417 22.7405 30.9054C22.7405 26.7692 26.1043 23.4054 30.2405 23.4054ZM7.74053 0.905422C11.8768 0.905422 15.2405 4.26917 15.2405 8.40542C15.2405 12.5417 11.8768 15.9054 7.74053 15.9054C3.60428 15.9054 0.240532 12.5417 0.240532 8.40542C0.240532 4.26917 3.60428 0.905422 7.74053 0.905422ZM30.2405 0.905422C34.3768 0.905422 37.7405 4.26917 37.7405 8.40542C37.7405 12.5417 34.3768 15.9054 30.2405 15.9054C26.1043 15.9054 22.7405 12.5417 22.7405 8.40542C22.7405 4.26917 26.1043 0.905422 30.2405 0.905422Z" fill="#7d7c78"/>
</svg>
